<svg width="31" height="31" viewBox="0 0 31 31" fill="none" xmlns="http://www.w3.org/2000/svg">
<path d="M29.0625 21.7V7.23269L16.6819 0V5.55481L21.5314 8.39519C21.7232 8.525 21.7232 8.78269 21.5314 8.84856L15.7867 12.2063C15.5949 12.3361 15.4051 12.2702 15.2772 12.2063L9.5325 8.84856C9.34069 8.78269 9.34069 8.46106 9.5325 8.39519L14.384 5.55481V0L1.9375 7.23269V21.7L6.66112 18.9236V13.2389C6.66112 13.0452 6.91494 12.9173 7.04281 12.9812L12.7875 16.3389C12.9793 16.4688 13.0433 16.5986 13.0433 16.7923V23.5077C13.0433 23.7014 12.7875 23.8313 12.6596 23.7673L7.81006 20.925L3.08644 23.7014L15.4671 31L27.8496 23.7673L23.126 20.9889L18.2784 23.8313C18.0866 23.9611 17.8948 23.8312 17.8948 23.5736V16.8562C17.8948 16.6625 18.0226 16.4688 18.1505 16.4048L23.8952 13.0452C24.087 12.9173 24.2769 13.0452 24.2769 13.3048V18.9875L29.0625 21.7Z" fill="black"/>
</svg>
