<svg width="31" height="31" viewBox="0 0 31 31" fill="none" xmlns="http://www.w3.org/2000/svg">
<path d="M21.9583 25.8333H5.16659V9.04167C5.16659 8.33125 4.58534 7.75 3.87492 7.75C3.1645 7.75 2.58325 8.33125 2.58325 9.04167V25.8333C2.58325 27.2542 3.74575 28.4167 5.16659 28.4167H21.9583C22.6687 28.4167 23.2499 27.8354 23.2499 27.125C23.2499 26.4146 22.6687 25.8333 21.9583 25.8333Z" fill="black"/>
<path d="M25.8333 2.58333H10.3333C8.9125 2.58333 7.75 3.74583 7.75 5.16666V20.6667C7.75 22.0875 8.9125 23.25 10.3333 23.25H25.8333C27.2542 23.25 28.4167 22.0875 28.4167 20.6667V5.16666C28.4167 3.74583 27.2542 2.58333 25.8333 2.58333ZM18.0962 19.375C17.3342 19.375 16.74 18.7679 16.74 18.0187C16.74 17.2567 17.3471 16.6754 18.0962 16.6754C18.8583 16.6754 19.4396 17.2567 19.4396 18.0187C19.4267 18.7679 18.8583 19.375 18.0962 19.375ZM21.3254 11.4054C20.5117 12.6067 19.7367 12.9683 19.3104 13.7433C19.2071 13.9242 19.1425 14.0792 19.1037 14.3762C19.0392 14.88 18.6387 15.2546 18.135 15.2546H18.0962C17.5279 15.2546 17.0758 14.7637 17.1275 14.1954C17.1663 13.8337 17.2437 13.4592 17.4504 13.1104C17.98 12.1675 18.9746 11.6121 19.5558 10.7854C20.1758 9.90708 19.8271 8.27958 18.0833 8.27958C17.2954 8.27958 16.7787 8.69291 16.4558 9.18374C16.2104 9.55833 15.7196 9.68749 15.3063 9.50666C14.7638 9.27416 14.5312 8.60249 14.8671 8.12458C15.5258 7.16874 16.6237 6.45833 18.0704 6.45833C19.6592 6.45833 20.7571 7.18166 21.3125 8.08583C21.7904 8.87374 22.0617 10.3204 21.3254 11.4054Z" fill="black"/>
</svg>
