<svg width="31" height="31" viewBox="0 0 31 31" fill="none" xmlns="http://www.w3.org/2000/svg">
<path d="M3.87508 24.574C3.16466 24.574 2.55672 24.3212 2.05125 23.8158C1.54578 23.3103 1.29261 22.7019 1.29175 21.9906V19.4073C1.29175 19.0413 1.41575 18.7348 1.66375 18.4876C1.91175 18.2405 2.2183 18.1165 2.58341 18.1156C2.94939 18.1156 3.25637 18.2396 3.50437 18.4876C3.75237 18.7356 3.87594 19.0422 3.87508 19.4073V21.9906H27.1251V19.4073C27.1251 19.0413 27.2491 18.7343 27.4971 18.4863C27.7451 18.2383 28.0516 18.1148 28.4167 18.1156C28.7827 18.1156 29.0897 18.2396 29.3377 18.4876C29.5857 18.7356 29.7093 19.0422 29.7084 19.4073V21.9906C29.7084 22.7011 29.4557 23.3094 28.9502 23.8158C28.4447 24.3221 27.8364 24.5748 27.1251 24.574H3.87508ZM9.49383 19.6656C8.43897 19.6656 7.61015 19.3914 7.00737 18.8428C6.4046 18.2943 6.10321 17.546 6.10321 16.5979C6.10321 15.6938 6.45325 14.9567 7.15333 14.3866C7.85341 13.8165 8.75198 13.5311 9.84904 13.5302C10.3442 13.5302 10.8019 13.5681 11.2221 13.6439C11.6423 13.7197 12.0027 13.8432 12.3032 14.0146V13.5625C12.3032 12.9813 12.1043 12.5184 11.7065 12.174C11.3086 11.8295 10.7648 11.6573 10.0751 11.6573C9.75216 11.6573 9.44561 11.706 9.15541 11.8033C8.86522 11.9006 8.60129 12.0349 8.36362 12.2063C8.16987 12.357 7.96019 12.4431 7.73458 12.4646C7.50897 12.4861 7.29886 12.4215 7.10425 12.2708C6.9105 12.1202 6.7921 11.932 6.74904 11.7064C6.70598 11.4808 6.77057 11.2814 6.94279 11.1083C7.33029 10.7424 7.78797 10.4625 8.31583 10.2688C8.84369 10.075 9.44087 9.97814 10.1074 9.97814C11.4421 9.97814 12.4647 10.2959 13.1751 10.9314C13.8855 11.5669 14.2407 12.487 14.2407 13.6917V18.4386C14.2407 18.6969 14.149 18.9178 13.9656 19.1012C13.7822 19.2846 13.5617 19.3759 13.3042 19.375C13.0244 19.375 12.7932 19.2833 12.6106 19.0999C12.4281 18.9165 12.3364 18.6853 12.3355 18.4063V18.2771H12.2386C11.9588 18.7077 11.582 19.0469 11.1084 19.2949C10.6348 19.5429 10.0966 19.6665 9.49383 19.6656ZM10.2042 15.0479C9.51536 15.0479 8.98793 15.1827 8.62196 15.4522C8.25598 15.7218 8.073 16.1037 8.073 16.5979C8.073 17.0285 8.23446 17.3785 8.55737 17.6481C8.88029 17.9176 9.30008 18.0519 9.81675 18.0511C10.5056 18.0511 11.0925 17.8091 11.5773 17.3251C12.0621 16.8412 12.3041 16.2543 12.3032 15.5646C12.0018 15.3924 11.6574 15.2632 11.2699 15.1771C10.8824 15.091 10.5272 15.0479 10.2042 15.0479ZM21.0865 19.6656C20.2039 19.6656 19.5314 19.4719 19.069 19.0844C18.6065 18.6969 18.3103 18.3955 18.1803 18.1802H18.0834V18.6C18.0834 18.8583 17.9921 19.0792 17.8096 19.2626C17.627 19.4461 17.4061 19.5373 17.147 19.5365C16.8886 19.5365 16.6626 19.4396 16.4688 19.2458C16.2751 19.0521 16.1782 18.8261 16.1782 18.5677V7.4271C16.1782 7.14724 16.2751 6.91043 16.4688 6.71668C16.6626 6.52293 16.8994 6.42606 17.1792 6.42606C17.4591 6.42606 17.6959 6.52293 17.8897 6.71668C18.0834 6.91043 18.1803 7.14724 18.1803 7.4271V10.075L18.0834 11.3667H18.1803C18.2449 11.259 18.5032 10.9843 18.9553 10.5426C19.4074 10.1008 20.1178 9.8804 21.0865 9.88126C22.4643 9.88126 23.5515 10.3764 24.348 11.3667C25.1445 12.357 25.5428 13.4979 25.5428 14.7896C25.5428 16.0813 25.1501 17.2171 24.3648 18.197C23.5795 19.177 22.4867 19.6665 21.0865 19.6656ZM20.7959 11.6896C19.9348 11.6896 19.2674 12.0073 18.7938 12.6428C18.3202 13.2783 18.0834 13.9832 18.0834 14.7573C18.0834 15.5538 18.3202 16.2643 18.7938 16.8886C19.2674 17.5129 19.9348 17.825 20.7959 17.825C21.657 17.825 22.33 17.5129 22.8148 16.8886C23.2996 16.2643 23.5416 15.5538 23.5407 14.7573C23.5407 13.9608 23.2987 13.2504 22.8148 12.6261C22.3308 12.0018 21.6579 11.6896 20.7959 11.6896Z" fill="black"/>
</svg>
