<svg width="31" height="31" viewBox="0 0 31 31" fill="none" xmlns="http://www.w3.org/2000/svg">
<g clip-path="url(#clip0_28_107)">
<path d="M21.9583 5.16666C23.3869 5.16666 24.4835 6.25554 25.296 7.42708L25.5711 7.84171L25.823 8.25504C25.903 8.38937 25.9792 8.52371 26.0529 8.65287C27.0694 10.4702 27.9542 12.843 28.5393 15.1874C29.1206 17.5137 29.4422 19.9433 29.2368 21.8537C29.0302 23.7718 28.042 25.8333 25.8333 25.8333C23.8519 25.8333 22.2902 24.7742 21.0218 23.7395L19.5881 22.537C18.3959 21.5605 17.0913 20.6667 15.5 20.6667C13.9086 20.6667 12.6027 21.5605 11.4131 22.537L9.97937 23.7382C8.70837 24.7742 7.14675 25.8333 5.16662 25.8333C2.95658 25.8333 1.96846 23.7718 1.76308 21.8537C1.559 19.942 1.87933 17.5137 2.46058 15.1874C3.04571 12.843 3.9305 10.4702 4.94704 8.65287L5.17696 8.25375L5.42883 7.84171L5.70396 7.42708C6.51641 6.25554 7.61304 5.16666 9.04162 5.16666C9.70037 5.16666 10.3552 5.32683 10.9985 5.51541L11.7645 5.7505C11.891 5.78925 12.0163 5.82671 12.1416 5.86158C13.2589 6.18191 14.402 6.45833 15.5 6.45833C16.5979 6.45833 17.741 6.18191 18.8583 5.86158L20.0014 5.51671C20.6447 5.32683 21.2995 5.16666 21.9583 5.16666ZM10.9791 10.3333C10.1227 10.3333 9.30134 10.6735 8.69576 11.2791C8.09017 11.8847 7.74996 12.7061 7.74996 13.5625C7.74996 14.4189 8.09017 15.2403 8.69576 15.8459C9.30134 16.4514 10.1227 16.7917 10.9791 16.7917C11.8356 16.7917 12.6569 16.4514 13.2625 15.8459C13.8681 15.2403 14.2083 14.4189 14.2083 13.5625C14.2083 12.7061 13.8681 11.8847 13.2625 11.2791C12.6569 10.6735 11.8356 10.3333 10.9791 10.3333ZM20.0208 10.3333C19.6782 10.3333 19.3497 10.4694 19.1074 10.7117C18.8652 10.9539 18.7291 11.2824 18.7291 11.625V12.2708H18.0833C17.7407 12.2708 17.4122 12.4069 17.1699 12.6492C16.9277 12.8914 16.7916 13.2199 16.7916 13.5625C16.7916 13.9051 16.9277 14.2336 17.1699 14.4758C17.4122 14.7181 17.7407 14.8542 18.0833 14.8542H18.7291V15.5C18.7291 15.8426 18.8652 16.1711 19.1074 16.4133C19.3497 16.6556 19.6782 16.7917 20.0208 16.7917C20.3634 16.7917 20.6919 16.6556 20.9341 16.4133C21.1764 16.1711 21.3125 15.8426 21.3125 15.5V14.8542H21.9583C22.3009 14.8542 22.6294 14.7181 22.8716 14.4758C23.1139 14.2336 23.25 13.9051 23.25 13.5625C23.25 13.2199 23.1139 12.8914 22.8716 12.6492C22.6294 12.4069 22.3009 12.2708 21.9583 12.2708H21.3125V11.625C21.3125 11.2824 21.1764 10.9539 20.9341 10.7117C20.6919 10.4694 20.3634 10.3333 20.0208 10.3333ZM10.9791 12.9167C11.1504 12.9167 11.3147 12.9847 11.4358 13.1058C11.5569 13.2269 11.625 13.3912 11.625 13.5625C11.625 13.7338 11.5569 13.8981 11.4358 14.0192C11.3147 14.1403 11.1504 14.2083 10.9791 14.2083C10.8078 14.2083 10.6436 14.1403 10.5224 14.0192C10.4013 13.8981 10.3333 13.7338 10.3333 13.5625C10.3333 13.3912 10.4013 13.2269 10.5224 13.1058C10.6436 12.9847 10.8078 12.9167 10.9791 12.9167Z" fill="black"/>
</g>
<defs>
<clipPath id="clip0_28_107">
<rect width="31" height="31" fill="white"/>
</clipPath>
</defs>
</svg>
