<svg width="31" height="31" viewBox="0 0 31 31" fill="none" xmlns="http://www.w3.org/2000/svg">
<g clip-path="url(#clip0_28_98)">
<path d="M15.5 15.5L15.7831 14.508C15.6062 14.4576 15.419 14.4554 15.2409 14.5016C15.0629 14.5477 14.9003 14.6406 14.7702 14.7706C14.64 14.9006 14.5468 15.0629 14.5004 15.2409C14.4539 15.4189 14.4559 15.6061 14.5059 15.7831L15.5 15.5ZM19.6333 29.9667L18.6413 30.2498C18.7 30.4548 18.8206 30.6366 18.9867 30.7703C19.1528 30.904 19.3562 30.9831 19.569 30.9967C19.7817 31.0103 19.9935 30.9577 20.1752 30.8462C20.357 30.7347 20.4997 30.5697 20.584 30.3738L19.6333 29.9667ZM29.9667 19.6333L30.3738 20.584C30.5697 20.4997 30.7347 20.357 30.8462 20.1752C30.9577 19.9935 31.0103 19.7817 30.9967 19.569C30.9831 19.3562 30.904 19.1528 30.7703 18.9867C30.6366 18.8206 30.4548 18.7 30.2498 18.6413L29.9667 19.6333ZM22.7333 22.7333L22.3262 21.7827C22.0819 21.8872 21.8872 22.0819 21.7827 22.3262L22.7333 22.7333ZM7.23333 7.23333V6.2H6.2V7.23333H7.23333ZM27.9 7.23333H28.9333V6.2H27.9V7.23333ZM7.23333 27.9H6.2V28.9333H7.23333V27.9ZM0 2.06667H2.06667V0H0V2.06667ZM8.26667 2.06667H10.3333V0H8.26667V2.06667ZM16.5333 2.06667H18.6V0H16.5333V2.06667ZM0 10.3333H2.06667V8.26667H0V10.3333ZM0 18.6H2.06667V16.5333H0V18.6ZM14.5059 15.7831L18.6413 30.2498L20.6253 29.6835L16.492 15.2169L14.5059 15.7831ZM30.2498 18.6393L15.7831 14.508L15.2169 16.4941L29.6835 20.6274L30.2498 18.6393ZM20.584 30.3738L23.684 23.1405L21.7827 22.3262L18.6827 29.5595L20.584 30.3738ZM23.1405 23.684L30.3738 20.584L29.5595 18.6827L22.3262 21.7827L23.1405 23.684ZM7.23333 8.26667H27.9V6.2H7.23333V8.26667ZM26.8667 7.23333V14.4667H28.9333V7.23333H26.8667ZM6.2 7.23333V27.9H8.26667V7.23333H6.2ZM7.23333 28.9333H14.4667V26.8667H7.23333V28.9333Z" fill="black"/>
</g>
<defs>
<clipPath id="clip0_28_98">
<rect width="31" height="31" fill="white"/>
</clipPath>
</defs>
</svg>
